<svg width="16" height="16" viewBox="0 0 16 16" fill="none" xmlns="http://www.w3.org/2000/svg">
<path d="M16 2.2022C15.6479 2.21978 15.3638 2.26667 15.1477 2.34286C14.9377 2.41319 14.7431 2.53333 14.564 2.7033C14.4281 2.82637 14.3262 2.9641 14.2583 3.11648C14.1903 3.263 14.144 3.45055 14.1193 3.67912C14.076 3.98388 14.0544 4.34432 14.0544 4.76044V11.2396C14.0544 11.8432 14.0915 12.2916 14.1656 12.5846C14.2397 12.8777 14.3725 13.1121 14.564 13.2879C14.9037 13.5985 15.3824 13.7685 16 13.7978V14H10.0799V13.7978C10.4381 13.7802 10.7253 13.7333 10.9415 13.6571C11.1639 13.5751 11.3615 13.452 11.5345 13.2879C11.7259 13.1004 11.8556 12.863 11.9236 12.5758C11.9977 12.2828 12.0347 11.8374 12.0347 11.2396V3.38022L7.26346 14H7.06891L2.32542 3.53846V11.2396C2.32542 11.8432 2.35939 12.2886 2.42733 12.5758C2.50145 12.863 2.63424 13.1004 2.82571 13.2879C2.99865 13.4579 3.19321 13.581 3.40938 13.6571C3.63173 13.7333 3.91893 13.7802 4.27099 13.7978V14H0V13.7978C0.352056 13.7802 0.636171 13.7333 0.852345 13.6571C1.0747 13.581 1.27234 13.4579 1.44528 13.2879C1.63675 13.1004 1.76645 12.863 1.83439 12.5758C1.90851 12.2828 1.94557 11.8374 1.94557 11.2396V4.76044C1.94557 4.49084 1.93631 4.2359 1.91778 3.9956C1.88689 3.5619 1.81587 3.24542 1.70469 3.04615C1.55028 2.7707 1.33719 2.5685 1.06543 2.43956C0.799846 2.30476 0.444702 2.22564 0 2.2022V2H4.02085L8.03243 11.3978L12.1922 2H16V2.2022Z" fill="black"/>
</svg>
