<svg width="105" height="14" viewBox="0 0 105 14" fill="none" xmlns="http://www.w3.org/2000/svg">
<path d="M0 14V0H2.13926L6.89673 9.88H5.76324L10.4409 0H12.5642L12.5961 14H10.1695L10.1535 4.66H10.6005L6.8648 12.52H5.69938L1.88383 4.66H2.42663V14H0Z" fill="#1A1B1F"/>
<path d="M13.7787 14L18.7597 0H21.3141L26.311 14H23.597L19.51 1.64H20.5318L16.4289 14H13.7787ZM16.2692 11L16.9557 8.54H22.703L23.4054 11H16.2692Z" fill="#1A1B1F"/>
<path d="M27.4704 14V0H32.3077C33.3082 0 34.1703 0.206667 34.894 0.62C35.6177 1.02 36.1765 1.6 36.5703 2.36C36.9641 3.12 37.161 4.02667 37.161 5.08C37.161 6.12 36.9641 7.02 36.5703 7.78C36.1765 8.52667 35.6177 9.1 34.894 9.5C34.1703 9.9 33.3082 10.1 32.3077 10.1H28.9072L30.0567 8.68V14H27.4704ZM34.5747 14L31.7809 8.92H34.5428L37.3685 14H34.5747ZM30.0567 9.04L28.9072 7.52H32.164C32.9623 7.52 33.5583 7.30667 33.9521 6.88C34.3459 6.44 34.5428 5.84 34.5428 5.08C34.5428 4.30667 34.3459 3.70667 33.9521 3.28C33.5583 2.85333 32.9623 2.64 32.164 2.64H28.9072L30.0567 1.1V9.04Z" fill="#1A1B1F"/>
<path d="M41.369 14V2.64H37.7929V0H47.5314V2.64H43.9553V14H41.369Z" fill="#1A1B1F"/>
<path d="M48.9229 14V0H51.5092V14H48.9229Z" fill="#1A1B1F"/>
<path d="M54.1613 14V0H56.3006L62.894 10.08H61.8563V0H64.4106V14H62.2873L55.678 3.92H56.7157V14H54.1613Z" fill="#1A1B1F"/>
<path d="M74.9285 14L70.1071 0H72.901L77.1156 12.4H75.4713L79.7498 0H82.3201L77.4828 14H74.9285Z" fill="#1A1B1F"/>
<path d="M81.4102 14L86.3912 0H88.9456L93.9425 14H91.2285L87.1415 1.64H88.1633L84.0604 14H81.4102ZM83.9007 11L84.5872 8.54H90.3345L91.0369 11H83.9007Z" fill="#1A1B1F"/>
<path d="M95.1019 14V0H99.9392C100.94 0 101.802 0.206667 102.525 0.62C103.249 1.02 103.808 1.6 104.202 2.36C104.596 3.12 104.792 4.02667 104.792 5.08C104.792 6.12 104.596 7.02 104.202 7.78C103.808 8.52667 103.249 9.1 102.525 9.5C101.802 9.9 100.94 10.1 99.9392 10.1H96.5387L97.6882 8.68V14H95.1019ZM102.206 14L99.4124 8.92H102.174L105 14H102.206ZM97.6882 9.04L96.5387 7.52H99.7955C100.594 7.52 101.19 7.30667 101.584 6.88C101.977 6.44 102.174 5.84 102.174 5.08C102.174 4.30667 101.977 3.70667 101.584 3.28C101.19 2.85333 100.594 2.64 99.7955 2.64H96.5387L97.6882 1.1V9.04Z" fill="#1A1B1F"/>
</svg>
